<mxfile host="65bd71144e">
    <diagram id="q-LQW65U5HkMGduZC8kV" name="Page-1">
        <mxGraphModel dx="1451" dy="849" grid="1" gridSize="10" guides="1" tooltips="1" connect="1" arrows="1" fold="1" page="1" pageScale="1" pageWidth="827" pageHeight="1169" math="0" shadow="0">
            <root>
                <mxCell id="0"/>
                <mxCell id="1" parent="0"/>
                <mxCell id="2" value="" style="rounded=0;whiteSpace=wrap;html=1;" vertex="1" parent="1">
                    <mxGeometry x="70" y="70" width="610" height="50" as="geometry"/>
                </mxCell>
                <mxCell id="3" value="Buy ticket" style="text;strokeColor=none;fillColor=none;align=left;verticalAlign=middle;spacingLeft=4;spacingRight=4;overflow=hidden;points=[[0,0.5],[1,0.5]];portConstraint=eastwest;rotatable=0;" vertex="1" parent="1">
                    <mxGeometry x="370" y="80" width="110" height="30" as="geometry"/>
                </mxCell>
                <mxCell id="4" value="NFT Ticket" style="text;strokeColor=none;fillColor=none;html=1;fontSize=24;fontStyle=1;verticalAlign=middle;align=center;" vertex="1" parent="1">
                    <mxGeometry x="90" y="75" width="100" height="40" as="geometry"/>
                </mxCell>
                <mxCell id="6" value="My Ticket" style="text;strokeColor=none;fillColor=none;align=left;verticalAlign=middle;spacingLeft=4;spacingRight=4;overflow=hidden;points=[[0,0.5],[1,0.5]];portConstraint=eastwest;rotatable=0;" vertex="1" parent="1">
                    <mxGeometry x="450" y="80" width="110" height="30" as="geometry"/>
                </mxCell>
                <mxCell id="7" value="Homepage" style="text;strokeColor=none;fillColor=none;html=1;fontSize=24;fontStyle=1;verticalAlign=middle;align=center;" vertex="1" parent="1">
                    <mxGeometry x="20" y="20" width="100" height="40" as="geometry"/>
                </mxCell>
                <mxCell id="8" value="" style="rounded=0;whiteSpace=wrap;html=1;" vertex="1" parent="1">
                    <mxGeometry x="70" y="130" width="610" height="320" as="geometry"/>
                </mxCell>
                <mxCell id="33" value="&lt;b&gt;Event Details&lt;br&gt;&lt;/b&gt;&lt;br&gt;Organizer: foo&lt;br&gt;&lt;br&gt;Place: In the middle of no where&lt;br&gt;&lt;br&gt;...." style="rounded=0;whiteSpace=wrap;html=1;" vertex="1" parent="1">
                    <mxGeometry x="260" y="180" width="210" height="130" as="geometry"/>
                </mxCell>
                <mxCell id="34" value="Connect Wallet" style="rounded=1;whiteSpace=wrap;html=1;" vertex="1" parent="1">
                    <mxGeometry x="560" y="80" width="110" height="35" as="geometry"/>
                </mxCell>
                <mxCell id="35" value="Buy a ticket !" style="rounded=1;whiteSpace=wrap;html=1;" vertex="1" parent="1">
                    <mxGeometry x="275" y="330" width="180" height="40" as="geometry"/>
                </mxCell>
                <mxCell id="36" value="Buy Ticket" style="text;strokeColor=none;fillColor=none;html=1;fontSize=24;fontStyle=1;verticalAlign=middle;align=center;" vertex="1" parent="1">
                    <mxGeometry x="20" y="480" width="100" height="40" as="geometry"/>
                </mxCell>
                <mxCell id="37" value="" style="rounded=0;whiteSpace=wrap;html=1;" vertex="1" parent="1">
                    <mxGeometry x="70" y="520" width="610" height="50" as="geometry"/>
                </mxCell>
                <mxCell id="38" value="Buy ticket" style="text;strokeColor=none;fillColor=none;align=left;verticalAlign=middle;spacingLeft=4;spacingRight=4;overflow=hidden;points=[[0,0.5],[1,0.5]];portConstraint=eastwest;rotatable=0;fontStyle=1" vertex="1" parent="1">
                    <mxGeometry x="370" y="530" width="110" height="30" as="geometry"/>
                </mxCell>
                <mxCell id="39" value="NFT Ticket" style="text;strokeColor=none;fillColor=none;html=1;fontSize=24;fontStyle=1;verticalAlign=middle;align=center;" vertex="1" parent="1">
                    <mxGeometry x="90" y="525" width="100" height="40" as="geometry"/>
                </mxCell>
                <mxCell id="40" value="My Ticket" style="text;strokeColor=none;fillColor=none;align=left;verticalAlign=middle;spacingLeft=4;spacingRight=4;overflow=hidden;points=[[0,0.5],[1,0.5]];portConstraint=eastwest;rotatable=0;" vertex="1" parent="1">
                    <mxGeometry x="450" y="530" width="110" height="30" as="geometry"/>
                </mxCell>
                <mxCell id="41" value="Connect Wallet" style="rounded=1;whiteSpace=wrap;html=1;" vertex="1" parent="1">
                    <mxGeometry x="560" y="530" width="110" height="35" as="geometry"/>
                </mxCell>
                <mxCell id="50" value="" style="edgeStyle=none;html=1;" edge="1" parent="1" source="42" target="46">
                    <mxGeometry relative="1" as="geometry"/>
                </mxCell>
                <mxCell id="42" value="" style="rounded=0;whiteSpace=wrap;html=1;" vertex="1" parent="1">
                    <mxGeometry x="70" y="580" width="610" height="320" as="geometry"/>
                </mxCell>
                <mxCell id="44" value="Buy a ticket / Mint NFT Token&lt;br&gt;&lt;br&gt;Name: Alice&lt;br&gt;&lt;br&gt;ID: A12345678" style="rounded=0;whiteSpace=wrap;html=1;" vertex="1" parent="1">
                    <mxGeometry x="260" y="610" width="220" height="110" as="geometry"/>
                </mxCell>
                <mxCell id="46" value="&lt;div style=&quot;text-align: left&quot;&gt;&lt;span&gt;API Endpoint: /ticket POST Method&lt;br&gt;&lt;/span&gt;&lt;/div&gt;&lt;div style=&quot;text-align: left&quot;&gt;&lt;span&gt;&lt;br&gt;&lt;/span&gt;&lt;/div&gt;&lt;div style=&quot;text-align: left&quot;&gt;&lt;span&gt;1. Backend got the userAddress, message, and signedHash, it should verify identity.&amp;nbsp;&lt;/span&gt;&lt;/div&gt;&lt;div style=&quot;text-align: left&quot;&gt;&lt;span&gt;&lt;br&gt;&lt;/span&gt;&lt;/div&gt;&lt;div style=&quot;text-align: left&quot;&gt;&lt;span&gt;2. Generate a unique Image for user. with Image API.&lt;/span&gt;&lt;/div&gt;&lt;div style=&quot;text-align: left&quot;&gt;&lt;span&gt;&lt;br&gt;&lt;/span&gt;&lt;/div&gt;&lt;div style=&quot;text-align: left&quot;&gt;&lt;span&gt;3. Upload {userAddress, info like name, id,..., signedHash, imageUri, } to IPFS using Pintana.&lt;/span&gt;&lt;/div&gt;&lt;div style=&quot;text-align: left&quot;&gt;&lt;span&gt;&lt;br&gt;&lt;/span&gt;&lt;/div&gt;&lt;div style=&quot;text-align: left&quot;&gt;&lt;span&gt;4. Mint NFT for user. Set the state to `unused.&lt;/span&gt;&lt;/div&gt;&lt;div style=&quot;text-align: left&quot;&gt;&lt;span&gt;`&lt;/span&gt;&lt;/div&gt;" style="rounded=0;whiteSpace=wrap;html=1;" vertex="1" parent="1">
                    <mxGeometry x="790" y="645" width="290" height="190" as="geometry"/>
                </mxCell>
                <mxCell id="47" value="Mint" style="rounded=1;whiteSpace=wrap;html=1;" vertex="1" parent="1">
                    <mxGeometry x="290" y="740" width="170" height="30" as="geometry"/>
                </mxCell>
                <mxCell id="51" value="Notes:&lt;br&gt;1. Ask the user to sign {name, id, eventTime, eventPlace, Description}&lt;br&gt;&lt;br&gt;2. Mint NFT.&amp;nbsp;" style="rounded=1;whiteSpace=wrap;html=1;dashed=1;" vertex="1" parent="1">
                    <mxGeometry x="510" y="635" width="160" height="165" as="geometry"/>
                </mxCell>
                <mxCell id="53" value="My Ticket" style="text;strokeColor=none;fillColor=none;html=1;fontSize=24;fontStyle=1;verticalAlign=middle;align=center;" vertex="1" parent="1">
                    <mxGeometry x="20" y="930" width="100" height="40" as="geometry"/>
                </mxCell>
                <mxCell id="54" value="" style="rounded=0;whiteSpace=wrap;html=1;" vertex="1" parent="1">
                    <mxGeometry x="70" y="970" width="610" height="50" as="geometry"/>
                </mxCell>
                <mxCell id="55" value="Buy ticket" style="text;strokeColor=none;fillColor=none;align=left;verticalAlign=middle;spacingLeft=4;spacingRight=4;overflow=hidden;points=[[0,0.5],[1,0.5]];portConstraint=eastwest;rotatable=0;fontStyle=0" vertex="1" parent="1">
                    <mxGeometry x="370" y="980" width="110" height="30" as="geometry"/>
                </mxCell>
                <mxCell id="56" value="NFT Ticket" style="text;strokeColor=none;fillColor=none;html=1;fontSize=24;fontStyle=1;verticalAlign=middle;align=center;" vertex="1" parent="1">
                    <mxGeometry x="90" y="975" width="100" height="40" as="geometry"/>
                </mxCell>
                <mxCell id="57" value="My Ticket" style="text;strokeColor=none;fillColor=none;align=left;verticalAlign=middle;spacingLeft=4;spacingRight=4;overflow=hidden;points=[[0,0.5],[1,0.5]];portConstraint=eastwest;rotatable=0;fontStyle=1" vertex="1" parent="1">
                    <mxGeometry x="450" y="980" width="110" height="30" as="geometry"/>
                </mxCell>
                <mxCell id="58" value="Connect Wallet" style="rounded=1;whiteSpace=wrap;html=1;" vertex="1" parent="1">
                    <mxGeometry x="560" y="980" width="110" height="35" as="geometry"/>
                </mxCell>
                <mxCell id="59" value="" style="rounded=0;whiteSpace=wrap;html=1;" vertex="1" parent="1">
                    <mxGeometry x="70" y="1040" width="610" height="320" as="geometry"/>
                </mxCell>
                <mxCell id="60" value="My Ticket&lt;br&gt;&lt;br&gt;Name: Alice&lt;br&gt;ID: A12345678&lt;br&gt;Place: nowhere&lt;br&gt;Date: ...." style="rounded=0;whiteSpace=wrap;html=1;" vertex="1" parent="1">
                    <mxGeometry x="260" y="1060" width="230" height="160" as="geometry"/>
                </mxCell>
                <mxCell id="62" value="Check-in" style="rounded=1;whiteSpace=wrap;html=1;" vertex="1" parent="1">
                    <mxGeometry x="285" y="1230" width="170" height="30" as="geometry"/>
                </mxCell>
                <mxCell id="63" value="API Endpintt: /check-in&amp;nbsp;&lt;br&gt;&lt;br&gt;GET Method: Check user's state ? allow check in ? already checked-in ? or expired?&lt;br&gt;&lt;br&gt;POST Method: As long as user is allowed to check-in. Frontend will send userAddress, msg and msg-hash. Backend shall verify identity. If pass, set user's state to `used`" style="whiteSpace=wrap;html=1;aspect=fixed;glass=1;dashed=1;fillColor=none;align=left;" vertex="1" parent="1">
                    <mxGeometry x="780" y="1060" width="230" height="230" as="geometry"/>
                </mxCell>
                <mxCell id="64" value="Notes:&lt;br&gt;1. Ask the user to sign { signedHash (from the 1st step), currentTimestamp}&lt;br&gt;&lt;br&gt;2. Send POST Request to Backend." style="rounded=1;whiteSpace=wrap;html=1;dashed=1;" vertex="1" parent="1">
                    <mxGeometry x="510" y="1090" width="160" height="165" as="geometry"/>
                </mxCell>
                <mxCell id="65" value="Already Checked-in" style="rounded=1;whiteSpace=wrap;html=1;" vertex="1" parent="1">
                    <mxGeometry x="285" y="1270" width="175" height="30" as="geometry"/>
                </mxCell>
                <mxCell id="66" value="Expired.." style="rounded=1;whiteSpace=wrap;html=1;" vertex="1" parent="1">
                    <mxGeometry x="285" y="1310" width="175" height="30" as="geometry"/>
                </mxCell>
                <mxCell id="67" value="Organizer's Page" style="text;strokeColor=none;fillColor=none;html=1;fontSize=24;fontStyle=1;verticalAlign=middle;align=center;" vertex="1" parent="1">
                    <mxGeometry x="60" y="1380" width="100" height="40" as="geometry"/>
                </mxCell>
                <mxCell id="68" value="" style="rounded=0;whiteSpace=wrap;html=1;" vertex="1" parent="1">
                    <mxGeometry x="67.5" y="1420" width="610" height="50" as="geometry"/>
                </mxCell>
                <mxCell id="69" value="Buy ticket" style="text;strokeColor=none;fillColor=none;align=left;verticalAlign=middle;spacingLeft=4;spacingRight=4;overflow=hidden;points=[[0,0.5],[1,0.5]];portConstraint=eastwest;rotatable=0;fontStyle=0" vertex="1" parent="1">
                    <mxGeometry x="367.5" y="1430" width="110" height="30" as="geometry"/>
                </mxCell>
                <mxCell id="70" value="NFT Ticket" style="text;strokeColor=none;fillColor=none;html=1;fontSize=24;fontStyle=1;verticalAlign=middle;align=center;" vertex="1" parent="1">
                    <mxGeometry x="87.5" y="1425" width="100" height="40" as="geometry"/>
                </mxCell>
                <mxCell id="71" value="My Ticket" style="text;strokeColor=none;fillColor=none;align=left;verticalAlign=middle;spacingLeft=4;spacingRight=4;overflow=hidden;points=[[0,0.5],[1,0.5]];portConstraint=eastwest;rotatable=0;fontStyle=1" vertex="1" parent="1">
                    <mxGeometry x="447.5" y="1430" width="110" height="30" as="geometry"/>
                </mxCell>
                <mxCell id="72" value="0x0000" style="rounded=1;whiteSpace=wrap;html=1;" vertex="1" parent="1">
                    <mxGeometry x="557.5" y="1430" width="110" height="35" as="geometry"/>
                </mxCell>
                <mxCell id="73" value="I'm Organizer" style="text;strokeColor=none;fillColor=none;align=left;verticalAlign=middle;spacingLeft=4;spacingRight=4;overflow=hidden;points=[[0,0.5],[1,0.5]];portConstraint=eastwest;rotatable=0;" vertex="1" parent="1">
                    <mxGeometry x="275" y="80" width="110" height="30" as="geometry"/>
                </mxCell>
                <mxCell id="74" value="I'm Organizer" style="text;strokeColor=none;fillColor=none;align=left;verticalAlign=middle;spacingLeft=4;spacingRight=4;overflow=hidden;points=[[0,0.5],[1,0.5]];portConstraint=eastwest;rotatable=0;" vertex="1" parent="1">
                    <mxGeometry x="260" y="530" width="110" height="30" as="geometry"/>
                </mxCell>
                <mxCell id="75" value="I'm Organizer" style="text;strokeColor=none;fillColor=none;align=left;verticalAlign=middle;spacingLeft=4;spacingRight=4;overflow=hidden;points=[[0,0.5],[1,0.5]];portConstraint=eastwest;rotatable=0;" vertex="1" parent="1">
                    <mxGeometry x="260" y="980" width="110" height="30" as="geometry"/>
                </mxCell>
                <mxCell id="76" value="I'm Organizer" style="text;strokeColor=none;fillColor=none;align=left;verticalAlign=middle;spacingLeft=4;spacingRight=4;overflow=hidden;points=[[0,0.5],[1,0.5]];portConstraint=eastwest;rotatable=0;fontStyle=1" vertex="1" parent="1">
                    <mxGeometry x="270" y="1430" width="110" height="30" as="geometry"/>
                </mxCell>
                <mxCell id="77" value="" style="rounded=0;whiteSpace=wrap;html=1;" vertex="1" parent="1">
                    <mxGeometry x="65" y="1480" width="610" height="320" as="geometry"/>
                </mxCell>
                <mxCell id="78" value="Create an event&lt;br&gt;&lt;br&gt;Input Name.&lt;br&gt;Input Place.&lt;br&gt;Input Date.&lt;br&gt;Input Desc..." style="rounded=0;whiteSpace=wrap;html=1;glass=1;fillColor=none;" vertex="1" parent="1">
                    <mxGeometry x="255" y="1510" width="245" height="160" as="geometry"/>
                </mxCell>
                <mxCell id="79" value="Create" style="rounded=1;whiteSpace=wrap;html=1;glass=1;fillColor=none;" vertex="1" parent="1">
                    <mxGeometry x="280" y="1690" width="190" height="30" as="geometry"/>
                </mxCell>
                <mxCell id="80" value="Notes:&lt;br&gt;1. Only Admin is allowed to create ONLY ONE event." style="rounded=1;whiteSpace=wrap;html=1;dashed=1;" vertex="1" parent="1">
                    <mxGeometry x="520" y="1525" width="140" height="165" as="geometry"/>
                </mxCell>
                <mxCell id="81" value="API Endpintt: /event&lt;br&gt;&lt;br&gt;GET Method: Check if there is any event? if yes, return event detail in json.&lt;br&gt;&lt;br&gt;POST Method: Create an event if there is no event." style="whiteSpace=wrap;html=1;aspect=fixed;glass=1;dashed=1;fillColor=none;align=left;" vertex="1" parent="1">
                    <mxGeometry x="770" y="1465" width="230" height="230" as="geometry"/>
                </mxCell>
            </root>
        </mxGraphModel>
    </diagram>
</mxfile>